# xmcd
#
# Track frame offsets:
#	150
#	16494
#	38641
#	52177
#	74960
#	90716
#	105630
#	122588
#	134025
#	149900
#	170389
#	186878
#	202093
#	221721
#	241087
#	257194
#	273596
#	288461
#	303261
#	316765
#
# Disc length: 4454 seconds
#
# Revision: 2
# Processed by: cddbd v1.5.2PL0 Copyright (c) Steve Scherf et al.
# Submitted via: audiograbber 1.83.01
#
DISCID=44116414
DTITLE=Elvis Presley - Memphis Sessions (FTD13)
DYEAR=1969
DGENRE=Country
TTITLE0=After Loving You (Take3)
TTITLE1=Stranger In My Own Home Town (Undubbed Master)
TTITLE2=In The Ghetto (Take11)
TTITLE3=Suspicious Minds (Rehearsal Plus Take6)
TTITLE4=Any Day Now (Take2)
TTITLE5=Only The Strong Survive (Take22)
TTITLE6=Wearin' That Love On Look (Takes3&10)
TTITLE7=Do You Know Who I Am (Take1)
TTITLE8=And The Grass Won't Pay No Mind (Undubbed Master)
TTITLE9=You'll Think Of Me (Take14)
TTITLE10=Power Of My Love (Take6)
TTITLE11=This Is The Story (Takes1&2)
TTITLE12=True Love Travels On A Gravel Road (Takes6&7)
TTITLE13=Long Black Limousine (Take6)
TTITLE14=Kentucky Rain (Take9)
TTITLE15=Without Love (Takes3&4)
TTITLE16=Hey Jude (Spliced From Takes5And1)
TTITLE17=If I'm A Fool (Take3)
TTITLE18=From A Jack To A King (Takes1,2&3)
TTITLE19=I'm Movin' On (Takes1&2) (Undubbed Master)
EXTD=YEAR: 1969 ID3G:   2
EXTT0=
EXTT1=
EXTT2=
EXTT3=
EXTT4=
EXTT5=
EXTT6=
EXTT7=
EXTT8=
EXTT9=
EXTT10=
EXTT11=
EXTT12=
EXTT13=
EXTT14=
EXTT15=
EXTT16=
EXTT17=
EXTT18=
EXTT19=
PLAYORDER=
